<mxfile host="app.diagrams.net" agent="Mozilla/5.0 (Windows NT 10.0; Win64; x64) AppleWebKit/537.36 (KHTML, like Gecko) Chrome/137.0.0.0 Safari/537.36 Edg/137.0.0.0" version="27.1.3">
  <diagram name="第 1 页" id="SNnUAwdkBXaZDfroSAXm">
    <mxGraphModel dx="1546" dy="836" grid="1" gridSize="10" guides="1" tooltips="1" connect="1" arrows="1" fold="1" page="1" pageScale="1" pageWidth="1200" pageHeight="1920" math="0" shadow="0">
      <root>
        <mxCell id="0" />
        <mxCell id="1" parent="0" />
        <mxCell id="qFn1gYB5s_-sQzseoCl5-25" style="rounded=0;orthogonalLoop=1;jettySize=auto;html=1;endArrow=none;startFill=0;fontFamily=宋体;" edge="1" parent="1" source="qFn1gYB5s_-sQzseoCl5-1" target="qFn1gYB5s_-sQzseoCl5-6">
          <mxGeometry relative="1" as="geometry" />
        </mxCell>
        <mxCell id="qFn1gYB5s_-sQzseoCl5-26" style="rounded=0;orthogonalLoop=1;jettySize=auto;html=1;endArrow=none;startFill=0;fontFamily=宋体;" edge="1" parent="1" source="qFn1gYB5s_-sQzseoCl5-1" target="qFn1gYB5s_-sQzseoCl5-20">
          <mxGeometry relative="1" as="geometry" />
        </mxCell>
        <mxCell id="qFn1gYB5s_-sQzseoCl5-27" style="rounded=0;orthogonalLoop=1;jettySize=auto;html=1;endArrow=none;startFill=0;fontFamily=宋体;" edge="1" parent="1" source="qFn1gYB5s_-sQzseoCl5-1" target="qFn1gYB5s_-sQzseoCl5-7">
          <mxGeometry relative="1" as="geometry" />
        </mxCell>
        <mxCell id="qFn1gYB5s_-sQzseoCl5-29" style="rounded=0;orthogonalLoop=1;jettySize=auto;html=1;entryX=0;entryY=1;entryDx=0;entryDy=0;endArrow=none;startFill=0;fontFamily=宋体;" edge="1" parent="1" source="qFn1gYB5s_-sQzseoCl5-1" target="qFn1gYB5s_-sQzseoCl5-9">
          <mxGeometry relative="1" as="geometry" />
        </mxCell>
        <mxCell id="qFn1gYB5s_-sQzseoCl5-30" style="rounded=0;orthogonalLoop=1;jettySize=auto;html=1;endArrow=none;startFill=0;fontFamily=宋体;" edge="1" parent="1" source="qFn1gYB5s_-sQzseoCl5-1" target="qFn1gYB5s_-sQzseoCl5-22">
          <mxGeometry relative="1" as="geometry" />
        </mxCell>
        <mxCell id="qFn1gYB5s_-sQzseoCl5-31" style="rounded=0;orthogonalLoop=1;jettySize=auto;html=1;endArrow=none;startFill=0;fontFamily=宋体;" edge="1" parent="1" source="qFn1gYB5s_-sQzseoCl5-1" target="qFn1gYB5s_-sQzseoCl5-10">
          <mxGeometry relative="1" as="geometry" />
        </mxCell>
        <mxCell id="qFn1gYB5s_-sQzseoCl5-32" style="rounded=0;orthogonalLoop=1;jettySize=auto;html=1;endArrow=none;startFill=0;fontFamily=宋体;" edge="1" parent="1" source="qFn1gYB5s_-sQzseoCl5-1" target="qFn1gYB5s_-sQzseoCl5-11">
          <mxGeometry relative="1" as="geometry" />
        </mxCell>
        <mxCell id="qFn1gYB5s_-sQzseoCl5-33" style="rounded=0;orthogonalLoop=1;jettySize=auto;html=1;endArrow=none;startFill=0;fontFamily=宋体;" edge="1" parent="1" source="qFn1gYB5s_-sQzseoCl5-1" target="qFn1gYB5s_-sQzseoCl5-12">
          <mxGeometry relative="1" as="geometry" />
        </mxCell>
        <mxCell id="qFn1gYB5s_-sQzseoCl5-34" style="rounded=0;orthogonalLoop=1;jettySize=auto;html=1;endArrow=none;startFill=0;fontFamily=宋体;" edge="1" parent="1" source="qFn1gYB5s_-sQzseoCl5-1" target="qFn1gYB5s_-sQzseoCl5-13">
          <mxGeometry relative="1" as="geometry" />
        </mxCell>
        <mxCell id="qFn1gYB5s_-sQzseoCl5-35" style="rounded=0;orthogonalLoop=1;jettySize=auto;html=1;endArrow=none;startFill=0;fontFamily=宋体;" edge="1" parent="1" source="qFn1gYB5s_-sQzseoCl5-1" target="qFn1gYB5s_-sQzseoCl5-14">
          <mxGeometry relative="1" as="geometry" />
        </mxCell>
        <mxCell id="qFn1gYB5s_-sQzseoCl5-36" style="rounded=0;orthogonalLoop=1;jettySize=auto;html=1;endArrow=none;startFill=0;fontFamily=宋体;" edge="1" parent="1" source="qFn1gYB5s_-sQzseoCl5-1" target="qFn1gYB5s_-sQzseoCl5-15">
          <mxGeometry relative="1" as="geometry" />
        </mxCell>
        <mxCell id="qFn1gYB5s_-sQzseoCl5-37" style="rounded=0;orthogonalLoop=1;jettySize=auto;html=1;endArrow=none;startFill=0;fontFamily=宋体;" edge="1" parent="1" source="qFn1gYB5s_-sQzseoCl5-1" target="qFn1gYB5s_-sQzseoCl5-16">
          <mxGeometry relative="1" as="geometry" />
        </mxCell>
        <mxCell id="qFn1gYB5s_-sQzseoCl5-38" style="rounded=0;orthogonalLoop=1;jettySize=auto;html=1;endArrow=none;startFill=0;fontFamily=宋体;" edge="1" parent="1" source="qFn1gYB5s_-sQzseoCl5-1" target="qFn1gYB5s_-sQzseoCl5-17">
          <mxGeometry relative="1" as="geometry" />
        </mxCell>
        <mxCell id="qFn1gYB5s_-sQzseoCl5-39" style="rounded=0;orthogonalLoop=1;jettySize=auto;html=1;endArrow=none;startFill=0;fontFamily=宋体;" edge="1" parent="1" source="qFn1gYB5s_-sQzseoCl5-1" target="qFn1gYB5s_-sQzseoCl5-18">
          <mxGeometry relative="1" as="geometry" />
        </mxCell>
        <mxCell id="qFn1gYB5s_-sQzseoCl5-41" style="rounded=0;orthogonalLoop=1;jettySize=auto;html=1;endArrow=none;startFill=0;fontFamily=宋体;" edge="1" parent="1" source="qFn1gYB5s_-sQzseoCl5-1" target="qFn1gYB5s_-sQzseoCl5-4">
          <mxGeometry relative="1" as="geometry" />
        </mxCell>
        <mxCell id="qFn1gYB5s_-sQzseoCl5-42" style="rounded=0;orthogonalLoop=1;jettySize=auto;html=1;endArrow=none;startFill=0;fontFamily=宋体;" edge="1" parent="1" source="qFn1gYB5s_-sQzseoCl5-1" target="qFn1gYB5s_-sQzseoCl5-19">
          <mxGeometry relative="1" as="geometry" />
        </mxCell>
        <mxCell id="qFn1gYB5s_-sQzseoCl5-43" style="rounded=0;orthogonalLoop=1;jettySize=auto;html=1;endArrow=none;startFill=0;fontFamily=宋体;" edge="1" parent="1" source="qFn1gYB5s_-sQzseoCl5-1" target="qFn1gYB5s_-sQzseoCl5-3">
          <mxGeometry relative="1" as="geometry" />
        </mxCell>
        <mxCell id="qFn1gYB5s_-sQzseoCl5-45" style="rounded=0;orthogonalLoop=1;jettySize=auto;html=1;endArrow=none;startFill=0;fontFamily=宋体;" edge="1" parent="1" source="qFn1gYB5s_-sQzseoCl5-1" target="qFn1gYB5s_-sQzseoCl5-2">
          <mxGeometry relative="1" as="geometry" />
        </mxCell>
        <mxCell id="qFn1gYB5s_-sQzseoCl5-46" style="rounded=0;orthogonalLoop=1;jettySize=auto;html=1;endArrow=none;startFill=0;fontFamily=宋体;" edge="1" parent="1" source="qFn1gYB5s_-sQzseoCl5-1" target="qFn1gYB5s_-sQzseoCl5-21">
          <mxGeometry relative="1" as="geometry" />
        </mxCell>
        <mxCell id="qFn1gYB5s_-sQzseoCl5-47" style="rounded=0;orthogonalLoop=1;jettySize=auto;html=1;endArrow=none;startFill=0;fontFamily=宋体;" edge="1" parent="1" source="qFn1gYB5s_-sQzseoCl5-1" target="qFn1gYB5s_-sQzseoCl5-18">
          <mxGeometry relative="1" as="geometry" />
        </mxCell>
        <mxCell id="qFn1gYB5s_-sQzseoCl5-49" style="rounded=0;orthogonalLoop=1;jettySize=auto;html=1;endArrow=none;startFill=0;fontFamily=宋体;" edge="1" parent="1" source="qFn1gYB5s_-sQzseoCl5-1" target="qFn1gYB5s_-sQzseoCl5-23">
          <mxGeometry relative="1" as="geometry" />
        </mxCell>
        <mxCell id="qFn1gYB5s_-sQzseoCl5-1" value="电动车信息" style="rounded=0;whiteSpace=wrap;html=1;fontFamily=宋体;" vertex="1" parent="1">
          <mxGeometry x="540" y="360" width="110" height="60" as="geometry" />
        </mxCell>
        <mxCell id="qFn1gYB5s_-sQzseoCl5-2" value="封面" style="ellipse;whiteSpace=wrap;html=1;fontFamily=宋体;" vertex="1" parent="1">
          <mxGeometry x="300" y="420" width="90" height="50" as="geometry" />
        </mxCell>
        <mxCell id="qFn1gYB5s_-sQzseoCl5-3" value="最近点击时间" style="ellipse;whiteSpace=wrap;html=1;fontFamily=宋体;" vertex="1" parent="1">
          <mxGeometry x="300" y="300" width="90" height="50" as="geometry" />
        </mxCell>
        <mxCell id="qFn1gYB5s_-sQzseoCl5-4" value="&lt;p class=&quot;MsoNormal&quot;&gt;&lt;span style=&quot;&quot;&gt;载重&lt;/span&gt;&lt;/p&gt;" style="ellipse;whiteSpace=wrap;html=1;fontFamily=宋体;" vertex="1" parent="1">
          <mxGeometry x="360" y="190" width="90" height="50" as="geometry" />
        </mxCell>
        <mxCell id="qFn1gYB5s_-sQzseoCl5-5" value="&lt;p class=&quot;MsoNormal&quot;&gt;&lt;span style=&quot;&quot;&gt;状态&lt;/span&gt;&lt;/p&gt;" style="ellipse;whiteSpace=wrap;html=1;fontFamily=宋体;" vertex="1" parent="1">
          <mxGeometry x="430" y="150" width="90" height="50" as="geometry" />
        </mxCell>
        <mxCell id="qFn1gYB5s_-sQzseoCl5-6" value="电动车分类" style="ellipse;whiteSpace=wrap;html=1;fontFamily=宋体;" vertex="1" parent="1">
          <mxGeometry x="520" y="130" width="90" height="50" as="geometry" />
        </mxCell>
        <mxCell id="qFn1gYB5s_-sQzseoCl5-7" value="登记日期" style="ellipse;whiteSpace=wrap;html=1;fontFamily=宋体;" vertex="1" parent="1">
          <mxGeometry x="700" y="140" width="90" height="50" as="geometry" />
        </mxCell>
        <mxCell id="qFn1gYB5s_-sQzseoCl5-8" value="点击次数" style="ellipse;whiteSpace=wrap;html=1;fontFamily=宋体;" vertex="1" parent="1">
          <mxGeometry x="750" y="190" width="90" height="50" as="geometry" />
        </mxCell>
        <mxCell id="qFn1gYB5s_-sQzseoCl5-9" value="车辆排量" style="ellipse;whiteSpace=wrap;html=1;fontFamily=宋体;" vertex="1" parent="1">
          <mxGeometry x="780" y="250" width="90" height="50" as="geometry" />
        </mxCell>
        <mxCell id="qFn1gYB5s_-sQzseoCl5-10" value="车牌号" style="ellipse;whiteSpace=wrap;html=1;fontFamily=宋体;" vertex="1" parent="1">
          <mxGeometry x="790" y="370" width="90" height="50" as="geometry" />
        </mxCell>
        <mxCell id="qFn1gYB5s_-sQzseoCl5-11" value="租赁须知" style="ellipse;whiteSpace=wrap;html=1;fontFamily=宋体;" vertex="1" parent="1">
          <mxGeometry x="780" y="430" width="90" height="50" as="geometry" />
        </mxCell>
        <mxCell id="qFn1gYB5s_-sQzseoCl5-12" value="租金" style="ellipse;whiteSpace=wrap;html=1;fontFamily=宋体;" vertex="1" parent="1">
          <mxGeometry x="760" y="490" width="90" height="50" as="geometry" />
        </mxCell>
        <mxCell id="qFn1gYB5s_-sQzseoCl5-13" value="车辆详情" style="ellipse;whiteSpace=wrap;html=1;fontFamily=宋体;" vertex="1" parent="1">
          <mxGeometry x="730" y="550" width="90" height="50" as="geometry" />
        </mxCell>
        <mxCell id="qFn1gYB5s_-sQzseoCl5-14" value="品牌" style="ellipse;whiteSpace=wrap;html=1;fontFamily=宋体;" vertex="1" parent="1">
          <mxGeometry x="680" y="590" width="90" height="50" as="geometry" />
        </mxCell>
        <mxCell id="qFn1gYB5s_-sQzseoCl5-15" value="电池规格" style="ellipse;whiteSpace=wrap;html=1;fontFamily=宋体;" vertex="1" parent="1">
          <mxGeometry x="590" y="620" width="90" height="50" as="geometry" />
        </mxCell>
        <mxCell id="qFn1gYB5s_-sQzseoCl5-16" value="收藏数" style="ellipse;whiteSpace=wrap;html=1;fontFamily=宋体;" vertex="1" parent="1">
          <mxGeometry x="490" y="610" width="90" height="50" as="geometry" />
        </mxCell>
        <mxCell id="qFn1gYB5s_-sQzseoCl5-17" value="主键" style="ellipse;whiteSpace=wrap;html=1;fontFamily=宋体;" vertex="1" parent="1">
          <mxGeometry x="400" y="580" width="90" height="50" as="geometry" />
        </mxCell>
        <mxCell id="qFn1gYB5s_-sQzseoCl5-18" value="归还标准" style="ellipse;whiteSpace=wrap;html=1;fontFamily=宋体;" vertex="1" parent="1">
          <mxGeometry x="330" y="540" width="90" height="50" as="geometry" />
        </mxCell>
        <mxCell id="qFn1gYB5s_-sQzseoCl5-19" value="&lt;p class=&quot;MsoNormal&quot;&gt;&lt;span style=&quot;&quot;&gt;颜色&lt;/span&gt;&lt;/p&gt;" style="ellipse;whiteSpace=wrap;html=1;fontFamily=宋体;" vertex="1" parent="1">
          <mxGeometry x="320" y="240" width="90" height="50" as="geometry" />
        </mxCell>
        <mxCell id="qFn1gYB5s_-sQzseoCl5-20" value="创建时间" style="ellipse;whiteSpace=wrap;html=1;fontFamily=宋体;" vertex="1" parent="1">
          <mxGeometry x="610" y="130" width="90" height="50" as="geometry" />
        </mxCell>
        <mxCell id="qFn1gYB5s_-sQzseoCl5-21" value="押金" style="ellipse;whiteSpace=wrap;html=1;fontFamily=宋体;" vertex="1" parent="1">
          <mxGeometry x="310" y="480" width="90" height="50" as="geometry" />
        </mxCell>
        <mxCell id="qFn1gYB5s_-sQzseoCl5-22" value="换挡方式" style="ellipse;whiteSpace=wrap;html=1;fontFamily=宋体;" vertex="1" parent="1">
          <mxGeometry x="780" y="310" width="90" height="50" as="geometry" />
        </mxCell>
        <mxCell id="qFn1gYB5s_-sQzseoCl5-23" value="电动车型号" style="ellipse;whiteSpace=wrap;html=1;fontFamily=宋体;" vertex="1" parent="1">
          <mxGeometry x="290" y="360" width="90" height="50" as="geometry" />
        </mxCell>
        <mxCell id="qFn1gYB5s_-sQzseoCl5-28" style="rounded=0;orthogonalLoop=1;jettySize=auto;html=1;entryX=0.24;entryY=0.992;entryDx=0;entryDy=0;entryPerimeter=0;endArrow=none;startFill=0;fontFamily=宋体;" edge="1" parent="1" source="qFn1gYB5s_-sQzseoCl5-1" target="qFn1gYB5s_-sQzseoCl5-8">
          <mxGeometry relative="1" as="geometry" />
        </mxCell>
        <mxCell id="qFn1gYB5s_-sQzseoCl5-40" style="rounded=0;orthogonalLoop=1;jettySize=auto;html=1;entryX=0.711;entryY=0.928;entryDx=0;entryDy=0;entryPerimeter=0;endArrow=none;startFill=0;fontFamily=宋体;" edge="1" parent="1" source="qFn1gYB5s_-sQzseoCl5-1" target="qFn1gYB5s_-sQzseoCl5-5">
          <mxGeometry relative="1" as="geometry" />
        </mxCell>
      </root>
    </mxGraphModel>
  </diagram>
</mxfile>
